<svg height="45" viewBox="0 0 148 45" width="148" xmlns="http://www.w3.org/2000/svg"><g fill="none" fill-rule="evenodd"><path d="m91.719317 34.9588886c-8.5866044 6.3379477-21.035485 9.706903-31.7575746 9.706903-15.0256343 0-28.5545149-5.5531344-38.7953731-14.7989553-.8009329-.7240298-.0849627-1.7190671.8818656-1.156903 11.0454851 6.4309702 24.7080224 10.3016418 38.8151866 10.3016418 9.5168284 0 19.98-1.9739552 29.6059702-6.0588806 1.4520895-.6145522 2.6694403.9587687 1.2499253 2.0061941" fill="#fcaf17"/><path d="m95.3668884 30.7428097c-1.1001492-1.4074254-7.2601119-.6672761-10.0302985-.3358209-.8375373.1010821-.9668283-.6306716-.2105597-1.160597 4.9140672-3.4542537 12.9667164-2.4551866 13.9053358-1.3023134.9423135 1.1686567-.2468283 9.241791-4.8536194 13.0960074-.7079104.5947388-1.3832462.2750373-1.0675746-.5054104 1.0353358-2.5885075 3.3568657-8.3844403 2.2567164-9.7918657" fill="#fcaf17"/><g fill="#231f20"><path d="m85.4842164 4.87779851v-3.35283582c.0040299-.51380597.388209-.8533209.8492911-.8533209h15.0377235c.481232 0 .865411.35160448.865411.84929105v2.87563432c-.00403.48123135-.408358 1.11223881-1.132388 2.11130597l-7.7856719 11.12238807c2.8877239-.0688433 5.949403.3640298 8.5741789 1.8402985.590709.3314552.752575.8251119.796903 1.3103731v3.579515c0 .4933209-.537985 1.0635447-1.104179.7643283-4.6309701-2.4226119-10.7704477-2.6895895-15.8870149.0322388-.5255597.2750373-1.0716044-.2871268-1.0716044-.7804477v-3.4015299c0-.5460448.0080597-1.4762686.5581343-2.3054104l9.0231716-12.9465672h-7.8545149c-.4812313 0-.8654104-.3438806-.8694403-.84526119"/><path d="m30.5778358 25.925709h-4.5742164c-.436903-.028209-.7848134-.3559702-.8170522-.7723881v-23.47858209c0-.4691418.3962686-.8452612.8855597-.8452612h4.2588806c.4449626.02014926.8049626.35966418.8331716.78850746v3.06570896h.0849627c1.1082089-2.96462687 3.2033955-4.34787313 6.0182463-4.34787313 2.8635447 0 4.655485 1.38324626 5.9376492 4.34787313 1.108209-2.96462687 3.6278731-4.34787313 6.3174627-4.34787313 1.9212313 0 4.0160821.78884328 5.2942164 2.5683582 1.4520896 1.97361941 1.156903 4.84119403 1.156903 7.361194l-.0040298 14.8150747c0 .4691418-.3966045.8452612-.8818657.8452612h-4.5701866c-.4610821-.028209-.8210821-.3922389-.8210821-.8412314v-12.4492164c0-.9866418.0849627-3.45794777-.1296268-4.39623135-.3435448-1.5813806-1.3667911-2.02634328-2.6895896-2.02634328-1.1122388 0-2.2647761.74014925-2.7339179 1.92929104-.4691418 1.18477612-.4248134 3.15873139-.4248134 4.49328359v12.4451866c0 .4691418-.3962687.8452612-.8815299.8452612h-4.5705224c-.4610821-.028209-.8210821-.3922389-.8210821-.8412314l-.0040298-12.4492164c0-2.6167164.4248134-6.47126866-2.8188806-6.47126866-3.2883582 0-3.1587314 3.75347015-3.1587314 6.47126866l-.0040298 12.4451866c0 .4691418-.3925746.8452612-.8818657.8452612"/><path d="m115.11 5.12865672c-3.373321 0-3.587575 4.59470149-3.587575 7.45824628 0 2.8675746-.040298 8.9949627 3.542911 8.9949627 3.547276 0 3.717201-4.942612 3.717201-7.955597 0-1.9776493-.084962-4.34787318-.683731-6.22444034-.51347-1.63007463-1.536716-2.27317164-2.988806-2.27317164m-.044664-4.79283582c6.79097 0 10.463507 5.83220149 10.463507 13.2417537 0 7.1630597-4.056716 12.8454851-10.463507 12.8454851-6.661343 0-10.289217-5.8322015-10.289217-13.0919776 0-7.31250001 3.672538-12.9952612 10.289217-12.9952612"/><path d="m134.342463 25.925709h-4.558097c-.457053-.028209-.821082-.3922389-.821082-.8412314l-.00806-23.49067163c.040298-.42884328.420448-.76432836.88153-.76432836h4.242761c.396269.02014926.72806.29115672.813022.65518657v3.59160448h.084963c1.282164-3.21145523 3.073769-4.74044776 6.2325-4.74044776 2.050522 0 4.056716.74014925 5.338881 2.76649253 1.197201 1.87656717 1.197201 5.03966418 1.197201 7.31249997v14.7707463c-.052724.4164179-.424813.7401493-.877836.7401493h-4.586306c-.424813-.028209-.764328-.3398508-.813022-.7401493v-12.7484328c0-2.56835824.299216-6.32149257-2.863545-6.32149257-1.108209 0-2.135485.74014925-2.645261 1.87656716-.638731 1.4319403-.727724 2.86354481-.727724 4.44492541v12.6433209c-.008395.4691418-.404664.8452612-.889925.8452612"/><path d="m78.2032836 25.7598134c-.3032463.2710075-.7401493.2911567-1.08.105112-1.520597-1.262015-1.7916045-1.8443284-2.6207463-3.0455597-2.5116045 2.5562686-4.2911194 3.3246268-7.5432089 3.3246268-3.8501866 0-6.8473881-2.3782835-6.8473881-7.130485 0-3.7128359 2.0102239-6.2365299 4.8777985-7.4783956 2.4833955-1.0880597 5.949403-1.286194 8.6027239-1.58138056v-.59440298c0-1.09208955.0849627-2.37828358-.5581343-3.31656717-.5541045-.84526119-1.625709-1.18914179-2.5683583-1.18914179-1.7432462 0-3.2920522.89395523-3.6762313 2.74634329-.076903.41238806-.3804851.82074627-.7928731.84123134l-4.4328358-.48156716c-.3761195-.08462687-.7928732-.38417911-.6833956-.95440299 1.0192164-5.3791791 5.8765299-7.00522388 10.2284329-7.00522388 2.2244776 0 5.1367164.59473881 6.8880224 2.27720149 2.2285074 2.07906717 2.0142537 4.85361941 2.0142537 7.87466421v7.1264552c0 2.1435448.8895895 3.0821642 1.726791 4.2387313.2911567.4167538.3559702.9100747-.0161194 1.2133209-.9342537.7848135-2.5965671 2.2285075-3.5066418 3.0415299zm-4.6108209-11.1549627c0 1.7838806.0406343 3.268209-.8573508 4.8536194-.7280597 1.2861941-1.880597 2.0787314-3.166791 2.0787314-1.7553358 0-2.7826119-1.3345522-2.7826119-3.3165672 0-3.8948507 3.4942164-4.6024253 6.8067537-4.6024253z"/><path d="m18.0913433 25.7598134c-.3032463.2710075-.7401493.2911567-1.08.105112-1.520597-1.262015-1.7916045-1.8443284-2.6247761-3.0455597-2.5075747 2.5562686-4.2870896 3.3246268-7.53917914 3.3246268-3.85018657 0-6.84738806-2.3782835-6.84738806-7.130485 0-3.7128359 2.01022388-6.2365299 4.87779851-7.4783956 2.48339552-1.0880597 5.94940299-1.286194 8.60272389-1.58138056v-.59440298c0-1.09208955.0849627-2.37828358-.5581343-3.31656717-.5541045-.84526119-1.625709-1.18914179-2.5683582-1.18914179-1.74324632 0-3.29608214.89395523-3.67623139 2.74634329-.07690299.41238806-.38048508.82074627-.79287314.84123134l-4.43283582-.48156716c-.3761194-.08462687-.79287313-.38417911-.68339552-.95440299 1.01921642-5.3791791 5.87652985-7.00522388 10.22843287-7.00522388 2.2244776 0 5.1367164.59473881 6.8920522 2.27720149 2.2244776 2.07906717 2.0102239 4.85361941 2.0102239 7.87466421v7.1264552c0 2.1435448.8895895 3.0821642 1.726791 4.2387313.2911567.4167538.3559702.9100747-.0161194 1.2133209-.9342537.7848135-2.5965671 2.2285075-3.5066418 3.0415299zm-4.6108209-11.1549627c0 1.7838806.0406343 3.268209-.8573508 4.8536194-.7280597 1.2861941-1.880597 2.0787314-3.166791 2.0787314-1.75533582 0-2.78261194-1.3345522-2.78261194-3.3165672 0-3.8948507 3.49824624-4.6024253 6.80675374-4.6024253z"/></g></g></svg>