<svg height="22" width="22" xmlns="http://www.w3.org/2000/svg"><path d="m20.861 2.97a.733.733 0 0 1 .09.694l-2.492 6.46a.767.767 0 0 1 -.472.448l-2.992 1.014c-.92 1.685-2.066 2.89-3.25 4.096v1.735c.407.297.94.842 1.882 1.668l.182.93 1.115.704c.175.131.243 1.281.243 1.281h-9.335s.062-1.16.233-1.281l1.168-.703.19-.93c.897-.86 1.418-1.397 1.832-1.68v-1.723c-1.167-1.212-2.3-2.44-3.215-4.097l-3.028-1.014a.768.768 0 0 1 -.471-.447l-2.492-6.461a.735.735 0 0 1 .09-.693.787.787 0 0 1 .639-.324h3.212c-.015-.433-.024-.88-.024-1.345 0-.167.14-.302.312-.302h12.444c.172 0 .312.135.312.302 0 .466-.01.912-.023 1.345h3.211c.255 0 .494.121.64.324zm-16.99 6.298 1.31.444c-.541-1.47-.934-3.263-1.11-5.557h-2.173l1.972 5.112zm13.258 0 1.972-5.114h-2.17c-.173 2.291-.558 4.084-1.09 5.55z" fill="#ffb974" fill-rule="evenodd"/></svg>