<svg height="30" viewBox="0 0 161 30" width="161" xmlns="http://www.w3.org/2000/svg"><g fill="#fff" transform="matrix(1 0 0 -1 .1 29.682404)"><path d="m91.635997 28.9185783c-1.1091505-.2621629-2.218301-.5243257-2.4602975-.5848248l-.4638265-.1008319v-13.8139652-13.81396522h2.5207965 2.5207966v.52432568.50415932l.5646584-.38316108c2.2586338-1.55281069 6.0499115-1.63347618 9.1152005-.18149735 1.552811.72598941 3.468616 2.56112931 4.275271 4.09377363 1.552811 2.88379128 1.552811 6.57423742 0 9.43786232-2.379632 4.4164356-8.4698766 6.3927401-12.7854803 4.1744392l-1.1696496-.5848248-.0403327 5.5860852-.0604992 5.6062515zm8.812705-14.2374591c1.008318-.3024956 2.460297-1.572977 3.045122-2.6619611.66549-1.2704815.604991-3.14595417-.141165-4.5172675-.988152-1.75447442-2.50063-2.66196118-4.517267-2.66196118-2.9442904 0-5.2634233 2.46029745-5.0415932 5.34408868.1209983 1.4721452.5041594 2.2788002 1.5931435 3.3274515 1.3108142 1.2704815 3.246786 1.7141417 5.0617597 1.1696496z"/><path d="m123.035039 28.6967482c-1.10915-.5444921-1.552811-1.3713134-1.552811-2.9241241 0-1.5124779.362995-2.1981346 1.532645-2.8837912.907486-.5243257 2.480464-.5243257 3.408117.0201663.846987.4638266 1.613309 1.8754727 1.613309 2.9241241 0 1.028485-.766322 2.3796319-1.613309 2.8232921-.867154.4638266-2.480464.483993-3.387951.0403328z"/><path d="m80.7461558 26.4381144-2.218301-.5243256-.0604991-3.2871188-.0403328-3.2669523h-1.5124779-1.5124779v-2.4199647-2.4199647h1.5124779 1.5124779v-6.95739858-6.95739854h2.6216285 2.6216284v6.95739854 6.95739858h1.8149735 1.8149736v2.4199647 2.4199647h-1.8149736-1.8149735v3.8316108c0 3.5291152-.0201664 3.8316107-.3428283 3.8114444-.2016638-.0201664-1.351147-.2621629-2.5812957-.5646585z"/><path d="m131.464583 22.5863373v-3.2266196h-1.411646-1.411646v-2.4199647-2.4199647h1.411646 1.411646v-6.95739858-6.95739854h2.621628 2.621629v6.95739854 6.95739858h1.915805 1.915805v2.4199647 2.4199647h-1.915805-1.915805v3.2266196 3.2266196h-2.621629-2.621628z"/><path d="m8.04638266 19.5613814c-3.24678599-.6251576-5.76758256-2.5611293-7.19939501-5.5659188-.6654903-1.3914797-.74615579-1.7544744-.82682128-3.5896144-.14116461-3.20645319.68565667-5.42475417 2.78295942-7.52205692 3.79127804-3.81144442 10.10335261-3.81144442 13.91479711 0 .9276531.92765314 2.0166372 2.5006302 2.0166372 2.90395765 0 .10083186-1.028485.42349382-2.2586337.70582304l-2.2788001.52432569-.9679859-.8873204c-.9478195-.84698765-2.4401311-1.49231157-3.46861607-1.49231157-.94781952 0-2.5006302.64532392-3.32745148 1.37131334l-.84698765.74615578 6.9977313 1.61330981 6.9977313 1.6133098-.1209983 1.29064788c-.2218301 2.5207965-2.05697 5.4045878-4.3357701 6.876733-1.9359717 1.2301487-4.9205949 1.8351399-7.07839674 1.4116461zm3.95260904-5.142425c.5646584-.2823292 1.2301487-.7259894 1.4721452-.9881523l.4638265-.4839929-.6856566-.1411646c-.3629947-.0806655-2.379632-.5444921-4.47693473-1.028485-2.09730275-.483993-3.85177716-.8469877-3.91227628-.8066549-.18149735.1814973.38316108 1.4721452.96798588 2.1779682 1.43181246 1.7343081 4.13410638 2.2788001 6.17091003 1.2704815z"/><path d="m44.6483489 19.6218805c-2.6619612-.3428283-5.465087-2.1578019-6.9372322-4.4567683-2.0166372-3.1862869-1.9359718-7.70355435.2016637-10.91000759 3.2871188-4.94076128 10.4865138-5.70708344 14.8222839-1.59314343 1.028485.96798588 2.2989665 2.70229392 2.2989665 3.10562138 0 .12099823-1.0486514.44366019-2.3191329.72598941l-2.2989665.50415931-.9074867-.86715402c-.8873204-.84698765-2.379632-1.49231157-3.4484497-1.49231157-.9881523 0-2.6014621.6654903-3.3677843 1.39147971l-.8066549.74615578 6.9775649 1.61330981 6.977565 1.59314343v.72598938c0 1.8956391-1.189816 4.436602-2.9039577 6.1305773-2.1578019 2.1779682-5.2230905 3.1862869-8.2883791 2.7829594zm3.6702798-5.2029241c1.028485-.5243257 1.8351399-1.2099824 1.6334762-1.4318125-.161331-.1411646-8.6715402-2.1174691-8.873204-2.05697-.2218301.0806655.5041593 1.5931435 1.1293169 2.3191329 1.3713133 1.6334762 4.11394 2.1578018 6.1104109 1.1696496z"/><path d="m65.3390471 19.541215c-.4839929-.0806655-1.3511469-.4436602-1.9561381-.7864885l-1.0889841-.6049912v.6049912.6049912h-2.5207966-2.5207966v-9.37736328-9.37736324h2.5006302 2.5207966l.0604991 5.8079153c.0604991 5.40458782.0806655 5.84824802.483993 6.59440382.5243257 1.0083186 1.411646 1.6334762 2.5812957 1.7948072 1.8553062.2823292 3.7307789-.7461558 4.1542727-2.2989665.1008319-.3831611.2016637-3.22661962.2016637-6.29190825v-5.60625157h2.540963 2.5207965l-.0604991 6.81623393-.0604991 6.79606759-.6251575 1.3309806c-1.0688178 2.2384673-2.7627931 3.5492815-5.2230905 3.9929417-1.351147.2621629-2.2384674.2621629-3.5089489 0z"/><path d="m148.081674 19.4605495c-.685657-.1411646-1.774641-.5243257-2.419965-.8469876-1.431812-.6856567-3.408117-2.6014621-4.154273-4.0131082-2.077136-3.8921099-1.310814-8.83287114 1.83514-11.83766066 3.629947-3.46861608 9.115201-3.69044618 13.108142-.54449206.927654.74615579 2.641795 3.00478952 2.641795 3.50894883 0 .14116461-.927653.46382657-2.258633.76632216l-2.278801.52432569-.927653-.86715403c-.907486-.84698764-2.460297-1.51247794-3.508949-1.51247794-.947819 0-2.50063.64532392-3.327451 1.37131334l-.846988.74615578 7.017898 1.63347618 7.038064 1.61330981-.060499.8066549c-.040333.4234938-.201664 1.2906478-.362995 1.895639-.988152 3.4887825-4.11394 6.2515755-7.764053 6.8565667-1.61331.2419965-2.198135.2419965-3.730779-.1008319zm4.255104-5.0214267c.867154-.4033275 2.238468-1.5326444 1.855307-1.5326444-.060499 0-2.077137-.4638265-4.497101-1.0083186-2.399799-.5646584-4.416436-.9679859-4.476935-.9074867-.201664.2016637.645324 1.734308 1.33098 2.440131 1.492312 1.5326443 3.811445 1.9359718 5.787749 1.0083187z"/><path d="m17.7867406 19.1177212c.0403328-.1411646 1.7544744-4.3761028 3.7711117-9.37736325l3.6904462-9.13536677h2.6619611 2.6619612l3.3476179 8.32871187c1.8351399 4.55760025 3.5291152 8.79253845 3.7509453 9.37736325l.4234938 1.0486514h-2.7829594-2.7627931l-2.3191328-6.1507437c-1.6536426-4.37610281-2.3594656-6.04991174-2.4804638-5.80791527-.0806655.20166373-1.1293169 2.94429037-2.3191329 6.11041087l-2.1779682 5.7474162-2.7829594.0604991c-2.1981346.0403328-2.7627931 0-2.6821276-.2016637z"/><path d="m110.289892 9.98235442v-9.37736324h2.520796 2.520797v5.20292412c0 2.84345853.100832 5.5054197.201663 5.9087472.383162 1.3914797 1.855307 2.2989664 4.033275 2.5409629l1.209982.1209982v2.4804639c0 2.2586337-.040332 2.5006302-.342828 2.5006302-.988152-.0201664-3.508949-.6049912-4.255105-.9881523l-.846987-.4234938v.705823.7058231h-2.520797-2.520796z"/><path d="m122.188051 9.98235442v-9.37736324h2.520797 2.520797v9.37736324 9.37736328h-2.520797-2.520797z"/></g></svg>