<svg height="29" width="148" xmlns="http://www.w3.org/2000/svg"><path d="m82.196 21.715c-.259 1.835-1.715 2.796-3.444 2.662a4.073 4.073 0 0 1 -1.174-.26c-1.394-.803-1.816-2.147-1.938-2.99l-.003.001c-.095-1.305-.198-4.035.437-5.324.54-.99 1.48-1.528 2.728-1.57 1.772-.057 3.113.824 3.377 2.628.234 1.59.245 3.265.017 4.853zm-.88-12.054c-2.222-.237-4.146.438-5.771 2.399v-12.025l-5.887.715v27.83h5.887v-1.652c.794.568 1.566 1.253 2.47 1.577 3.43 1.233 7.952.228 9.535-4.373 1.016-2.951.989-5.977.224-8.962-.848-3.315-3.048-5.145-6.457-5.51zm21.113 11.755c-.02.122-.04.244-.068.365-.39 1.741-1.652 2.684-3.334 2.605-1.808-.083-3.048-1.143-3.223-2.955a22.694 22.694 0 0 1 -.026-4c.172-2.09 1.475-3.233 3.431-3.195 1.608.031 2.752.945 3.161 2.495.37 1.558.095 4.33.059 4.685zm-.25-11.41a11.741 11.741 0 0 0 -6.152.003c-3.056.816-5.105 2.755-5.765 5.84-.36 1.683-.432 3.473-.337 5.199.218 3.948 2.653 6.76 6.432 7.633.053.013.108.023.162.035h-.001l.027.006c.146.029.291.056.437.078l.147.013h.004c.183.034.403.06.634.077.74.079 1.682.135 2.467.042.006 0 .009 0 .013-.002.04 0 .08 0 .12-.003 3.902-.204 6.863-2.67 7.727-6.455.474-2.076.474-4.162.015-6.24-.717-3.26-2.69-5.357-5.93-6.227zm-88.371-.098h-4.202v-2.802c.307-2.65 4.67-2.146 4.67-2.146l.002-.181-.001-.02v-4.352h-.001-.003c-.15-.036-8.68-2.066-10.374 4.444 0 .001 0 .003-.002.005l-.01.042c-.267.814-.249 4.541-.245 5.01h-3.642v4.983h3.868v13.556h5.632v-13.556h4.307l.485-4.983zm12.948 11.78c-.184 1.726-1.577 2.763-3.224 2.698-1.687-.066-2.804-.972-3.168-2.595-.437-2.31.074-5.054.117-5.277.441-1.55 1.566-2.317 3.216-2.278 1.62.036 2.87.998 3.052 2.68.171 1.576.175 3.196.007 4.772zm.483-9.396c-.069-.077-.137-.15-.196-.212v-.001l-.026-.027c-.082-.086-.14-.143-.14-.143-1.326-1.352-1.826-1.688-2.865-1.995-3.995-1.18-7.884.917-9.115 4.948-.757 2.476-.768 5.025-.324 7.533.958 5.431 4.986 7.25 9.28 6.354 1.318-.276 2.297-1.098 3.205-2.244 0 0 .082-.1.182-.295v2.39h5.494v-18.672h-5.494v2.363zm22.274 14.969a73.353 73.353 0 0 0 -.825-2.748l-.265-.99s-6.886 3.314-7.96-2.985c-.1-1.04-.07-2.112.074-3.138.267-1.936 1.445-2.973 3.32-3.15a7.392 7.392 0 0 1 1.918.076c.853.144 1.686.402 2.62.633.325-.996.657-1.981.966-2.973.049-.156.09-.29.121-.41l.156-.596c-.039-.08-.133-.162-.259-.241-.158-.133-.428-.243-.849-.398a11.028 11.028 0 0 0 -.507-.17c-.151-.048-.25-.076-.25-.076h.001c-1.809-.519-3.666-.559-5.553-.36-3.976.421-6.675 2.775-7.424 6.66a15.162 15.162 0 0 0 .077 6.162c.675 3.07 2.53 5.054 5.548 5.94 1.968.58 3.985.608 5.993.294.844-.132 2.054-.57 2.923-.883l.33-.117-.155-.531zm12.832-9.85h-6.36c.032-1.269.19-2.448 1.315-3.166 1.195-.76 2.514-.79 3.742-.107 1.242.687 1.34 1.93 1.303 3.273zm5.295 2.546c-.026-1.292-.008-2.591-.19-3.861-.503-3.483-2.618-5.687-6.038-6.263-1.305-.219-2.685-.19-4.011-.063-3.63.347-6.385 2.614-6.95 6.026a21.754 21.754 0 0 0 -.11 6.345c.42 3.127 1.937 5.118 4.564 6.075h.002c.01 0 .022.002.034.004l-.001.002c1.199.359 7.067 1.898 12.24-.709l-.208-.763-.008.001c-.24-1.018-.527-2.026-.798-3.035l-.03-.1s-.107.04-.298.1l-.013.001c-.226.06-.45.129-.671.203a4.624 4.624 0 0 1 -.123.039c-.783.22-1.902.493-3.085.646-.992.1-1.994.104-3.006.018-1.642-.273-2.9-1.155-2.84-3.241h10.6l.231-.001s.691-.008.72-.015v-.205l-.01-1.204zm80.276-9.834h-6.244l-5.424 8.503v-18.574l-5.887.716v27.831h5.887v-8.517l5.424 8.53h6.244l-5.885-9.26zm-25.409 11.289c-.02.124-.04.245-.068.366-.392 1.741-1.652 2.683-3.334 2.605-1.808-.084-3.049-1.144-3.223-2.955a22.718 22.718 0 0 1 -.028-3.999c.175-2.091 1.477-3.235 3.434-3.196 1.605.031 2.751.945 3.16 2.494.369 1.558.096 4.331.059 4.685zm-.249-11.41a11.74 11.74 0 0 0 -6.154.003c-3.055.817-5.104 2.756-5.764 5.84-.36 1.684-.432 3.473-.336 5.2.216 3.947 2.652 6.76 6.43 7.633.054.013.109.022.163.035h-.001l.026.005c.146.03.293.056.439.078.048.005.098.01.146.012l.004.002c.185.033.403.06.633.077.741.08 1.684.136 2.469.043l.012-.003c.041 0 .08 0 .119-.003 3.903-.204 6.864-2.672 7.728-6.455.474-2.076.474-4.162.017-6.24-.72-3.26-2.69-5.358-5.93-6.226z" fill="#fff" fill-rule="evenodd"/></svg>