<svg width="74" height="43" xmlns="http://www.w3.org/2000/svg"><path d="M55.793 0C71.3 0 74 10.252 74 21.527 74 32.746 71.246 43 55.793 43c-15.508 0-18.261-10.254-18.261-21.473C37.532 10.252 40.285 0 55.792 0zm0 33.085c6.07 0 6.912-4.25 6.912-11.16 0-6.855-.842-11.105-6.912-11.105-6.124 0-6.968 4.25-6.968 11.105 0 6.91.844 11.16 6.968 11.16zM16.197 26.29l1.228-9.123h16.12V42.49H23.313c-1.79.343-3.87.51-6.288.51C3.37 43 0 34.218 0 21.527 0 6.97 4.609 0 18.992 0c5.169 0 9.776 1.358 12.925 3.399l-5.957 9.35c-1.91-1.08-4.217-1.929-7.474-1.929-4.383 0-7.305 1.19-7.305 11.048 0 9.461 1.744 11.84 6.858 11.84 5.48 0 5.336-2.046 5.336-6.685v-.733h-7.178z" fill="#FFF" fill-rule="nonzero"/></svg>