<svg height="50" width="50" xmlns="http://www.w3.org/2000/svg"><path d="m25 4.505c6.675 0 7.466.025 10.102.145 2.438.112 3.761.519 4.642.861 1.167.454 2 .995 2.875 1.87s1.416 1.708 1.87 2.875c.342.88.75 2.204.86 4.642.121 2.636.146 3.427.146 10.102s-.025 7.466-.145 10.102c-.112 2.438-.519 3.761-.861 4.642-.454 1.167-.995 2-1.87 2.875s-1.708 1.417-2.875 1.87c-.88.342-2.204.75-4.642.86-2.636.121-3.426.147-10.102.147s-7.466-.026-10.102-.146c-2.438-.111-3.761-.519-4.642-.861-1.167-.453-2-.995-2.875-1.87s-1.417-1.708-1.87-2.875c-.342-.88-.75-2.204-.86-4.642-.121-2.636-.147-3.427-.147-10.102s.026-7.466.146-10.102c.111-2.438.519-3.761.861-4.642.453-1.167.995-2 1.87-2.875s1.708-1.416 2.875-1.87c.88-.342 2.204-.75 4.642-.86 2.636-.121 3.427-.146 10.102-.146m0-4.505c-6.79 0-7.641.029-10.307.15-2.662.122-4.479.544-6.069 1.163-1.644.638-3.038 1.493-4.428 2.883s-2.245 2.784-2.884 4.428c-.618 1.59-1.04 3.408-1.162 6.069-.12 2.666-.15 3.517-.15 10.307s.029 7.641.15 10.307c.122 2.662.544 4.479 1.162 6.069.64 1.644 1.494 3.038 2.884 4.428s2.784 2.245 4.428 2.884c1.59.618 3.407 1.04 6.069 1.162 2.666.12 3.517.15 10.307.15s7.641-.029 10.307-.15c2.661-.122 4.479-.544 6.069-1.162 1.644-.64 3.038-1.494 4.428-2.884s2.245-2.784 2.883-4.428c.619-1.59 1.041-3.407 1.163-6.069.12-2.666.15-3.517.15-10.307s-.029-7.641-.15-10.307c-.122-2.661-.544-4.479-1.163-6.069-.638-1.644-1.493-3.038-2.883-4.428s-2.784-2.245-4.428-2.883c-1.59-.619-3.408-1.041-6.069-1.163-2.666-.12-3.517-.15-10.307-.15m0 12.162c7.09 0 12.838 5.748 12.838 12.838s-5.748 12.838-12.838 12.838-12.838-5.748-12.838-12.838 5.748-12.838 12.838-12.838zm0 21.171a8.333 8.333 0 1 0 0-16.666 8.333 8.333 0 0 0 0 16.666zm16.345-21.678a3 3 0 1 1 -6 0 3 3 0 0 1 6 0" fill="#fff" fill-rule="evenodd"/></svg>