<svg height="50" viewBox="0 0 45 50" width="45" xmlns="http://www.w3.org/2000/svg" xmlns:xlink="http://www.w3.org/1999/xlink"><mask id="a" fill="#fff"><path d="m0 37.8594118v-25.9085294c0-6.59852946 5.38852941-11.9508824 12.0308824-11.9508824 4.1111764 0 7.7111764 2.03029412 9.8944117 5.14470588l1.6491177-1.63794117c4.6914706-4.66029412 12.3329411-4.66029412 17.0244117 0 4.6917647 4.66029411 4.6917647 12.25058819 0 16.91117649l-4.5288235 4.4988235 4.5288235 4.4755882c4.6917647 4.6602942 4.6917647 12.2508824 0 16.9111765-4.6914706 4.6602941-12.3329411 4.6602941-17.0244117 0l-1.6491177-1.6382353c-2.1832353 3.1147059-5.7832353 5.145-9.8944117 5.145-6.64235299 0-12.0308824-5.352647-12.0308824-11.9508823z" fill="#fff" fill-rule="evenodd"/></mask><path d="m0 49.8352941h44.1176471v-49.8352941h-44.1176471z" fill="#fff" fill-rule="evenodd" mask="url(#a)"/></svg>