<svg width="50" height="50" xmlns="http://www.w3.org/2000/svg"><path d="M0 25c0 10.237 6.156 19.03 14.965 22.897-.07-1.745-.013-3.841.435-5.74l3.217-13.623s-.8-1.596-.8-3.955c0-3.705 2.148-6.472 4.822-6.472 2.274 0 3.373 1.708 3.373 3.754 0 2.285-1.458 5.705-2.208 8.872-.626 2.651 1.33 4.814 3.946 4.814 4.737 0 7.927-6.083 7.927-13.291 0-5.48-3.69-9.58-10.403-9.58-7.583 0-12.308 5.655-12.308 11.972 0 2.178.643 3.714 1.648 4.903.463.547.527.766.36 1.394-.12.46-.396 1.567-.51 2.006-.166.633-.68.86-1.251.626-3.493-1.426-5.12-5.251-5.12-9.551 0-7.102 5.99-15.617 17.867-15.617 9.545 0 15.828 6.907 15.828 14.32 0 9.808-5.453 17.134-13.49 17.134-2.699 0-5.238-1.459-6.107-3.116 0 0-1.452 5.76-1.76 6.872-.53 1.928-1.567 3.854-2.515 5.356A24.98 24.98 0 0 0 25 50C38.806 50 50 38.807 50 25S38.806 0 25 0 0 11.193 0 25z" fill="#FFF" fill-rule="evenodd"/></svg>