<svg height="40" width="90" xmlns="http://www.w3.org/2000/svg"><path d="m30.625 39.04c-.052.613-.365.92-.938.92a.817.817 0 0 1 -.605-.26 1.06 1.06 0 0 1 -.293-.66l-.547-9.64.547-20.92c0-.267.091-.493.273-.68a.851.851 0 0 1 .625-.28c.26 0 .476.093.645.28.17.187.267.413.293.68l.625 20.92zm11.523-.2c0 .347-.117.613-.351.8-.235.24-.495.36-.781.36a1.1 1.1 0 0 1 -.899-.44 1.024 1.024 0 0 1 -.234-.68v-.04c-.287-6.267-.43-9.413-.43-9.44l.39-23.16.04-.24c0-.427.17-.747.508-.96.208-.133.416-.2.625-.2.208 0 .416.067.625.2.338.213.507.533.507.96l.47 23.44-.43 8.44zm-40.78-14.56.78 5.12-.78 5.04c-.053.24-.17.36-.352.36-.183 0-.3-.12-.352-.36l-.664-5.04.664-5.12c.052-.24.17-.36.352-.36s.3.12.351.36zm3.359-3.16 1.015 8.28-1.015 8.12c-.053.24-.183.36-.391.36-.234 0-.352-.133-.352-.4l-.898-8.08.898-8.28c0-.24.118-.36.352-.36.208 0 .338.12.39.36zm3.593-1.52.977 9.8-.977 9.48c0 .293-.143.44-.43.44-.26 0-.416-.147-.468-.44l-.82-9.48.82-9.8c.052-.32.208-.48.469-.48.286 0 .43.16.43.48zm3.672-.28.899 10.08-.899 9.76c-.052.347-.234.52-.547.52-.338 0-.508-.173-.508-.52l-.82-9.76.82-10.08c0-.347.17-.52.508-.52.313 0 .495.173.547.52zm3.672.72.82 9.36-.82 9.84c-.052.427-.26.64-.625.64a.556.556 0 0 1 -.41-.18.631.631 0 0 1 -.176-.46l-.781-9.84.781-9.36c0-.16.059-.3.176-.42a.556.556 0 0 1 .41-.18c.365 0 .573.2.625.6zm3.672-5.84.82 15.2-.82 9.84a.732.732 0 0 1 -.195.5.606.606 0 0 1 -.47.22c-.416 0-.65-.24-.702-.72l-.703-9.84.703-15.2c.052-.48.286-.72.703-.72.182 0 .338.073.469.22.13.147.195.313.195.5zm3.672-3.44.742 18.72-.742 9.76a.743.743 0 0 1 -.215.54.708.708 0 0 1 -.527.22c-.47 0-.73-.253-.782-.76l-.625-9.76.625-18.72c.052-.507.313-.76.782-.76.208 0 .384.073.527.22a.743.743 0 0 1 .215.54zm3.828-1.6.703 20.24-.703 9.68c-.052.56-.339.84-.86.84-.494 0-.768-.28-.82-.84l-.625-9.68.625-20.24c0-.24.085-.447.254-.62.17-.173.358-.26.567-.26.234 0 .43.087.585.26.157.173.248.38.274.62zm7.578-.16.586 20.4-.586 9.56a.97.97 0 0 1 -.293.7c-.195.2-.423.3-.684.3a.893.893 0 0 1 -.664-.28 1.139 1.139 0 0 1 -.312-.72l-.547-9.56.547-20.4c0-.293.098-.533.293-.72a.958.958 0 0 1 .684-.28c.26 0 .488.093.683.28a.952.952 0 0 1 .293.72zm3.867.76.547 19.68-.547 9.44c0 .293-.104.547-.312.76-.209.213-.456.32-.742.32-.287 0-.534-.107-.743-.32a1.212 1.212 0 0 1 -.351-.76l-.469-9.44.469-19.68c.026-.32.143-.587.351-.8.209-.213.456-.32.743-.32.286 0 .527.107.722.32.196.213.306.48.332.8zm8.282 19.68-.547 9.24c0 .347-.118.64-.352.88s-.52.36-.86.36c-.338 0-.624-.12-.859-.36a1.366 1.366 0 0 1 -.39-.88l-.235-4.56-.234-4.68.469-25.44v-.12c.052-.4.208-.72.468-.96.235-.187.495-.28.782-.28.208 0 .403.067.586.2.364.213.573.56.625 1.04zm43.437-.76c0 3.12-1.08 5.78-3.242 7.98s-4.766 3.3-7.813 3.3h-30.703a1.494 1.494 0 0 1 -.86-.44 1.212 1.212 0 0 1 -.35-.88v-35.96c0-.613.364-1.053 1.093-1.32 2.214-.907 4.57-1.36 7.07-1.36 5.078 0 9.48 1.753 13.203 5.26 3.724 3.507 5.808 7.82 6.25 12.94 1.38-.587 2.813-.88 4.297-.88 3.047 0 5.651 1.107 7.813 3.32 2.161 2.213 3.242 4.893 3.242 8.04z" fill="#fff" fill-rule="evenodd"/></svg>