<svg height="36" width="150" xmlns="http://www.w3.org/2000/svg"><path d="m150 7.553h-.709v-1.765l-.709 1.165h-.354l-.355-1.165v1.765h-.708v-3h.708l.71 1.623.708-1.623h.709zm-3.19-2.47h-.709v2.47h-.709v-2.47h-.708v-.53h2.126zm-3.899 11.117h-2.126v-6.776l-2.481 4.411h-1.418l-2.126-4.411v6.776h-2.481v-11.647h2.48l2.836 6.282 3.19-6.282h2.126zm-13.822 0h-2.481l-.709-2.047h-3.899l-.708 2.047h-2.481l4.253-11.647h1.772zm-3.544-3.988-1.418-4.236-1.418 4.236zm-10.279 3.988h-7.797v-11.647h7.797v2.012h-5.316v2.753h4.607v2.011h-4.607v2.86h5.316zm-11.341-9.635h-2.836v9.635h-2.48v-9.635h-3.19v-2.012h8.506zm-11.342 6.211c0 2.4-2.126 3.495-4.253 3.53-2.127 0-3.544-.494-4.253-1.553l1.418-1.447c.708.635 1.417.988 2.835.988s2.127-.494 2.127-1.447c0-.882-.71-1.27-1.418-1.412l-1.418-.176c-2.126-.283-3.19-1.377-3.19-3.283 0-1.058.355-1.905 1.064-2.576.708-.635 1.772-.953 2.835-.953 1.772 0 2.835.459 3.899 1.341l-1.419 1.447c-.709-.53-1.418-.811-2.481-.811-1.063.07-1.772.458-1.772 1.482 0 .812.709 1.2 1.418 1.27l1.417.212c1.772.212 3.19 1.412 3.19 3.388zm-18.076-2.116c0 3.176-2.835 5.753-6.025 5.753s-5.67-2.577-5.67-5.753c0-3.141 2.48-5.718 5.67-5.718s6.025 2.577 6.025 5.718zm-6.025-10.66c-5.67 0-10.632 4.73-10.632 10.624l-6.734 9.564c-.354-.035-.354-.07-.709-.07-1.417 0-2.835.423-4.253 1.13l-30.269-12.143c-.815-3.6-4.04-6.282-7.868-6.282-4.395.001-8.017 3.601-8.017 8.012 0 4.377 3.622 7.977 8.017 7.977 1.524 0 2.906-.388 4.112-1.13l30.48 12.142c.71 3.705 3.9 6.176 7.798 6.176s7.443-3.176 7.797-7.094l10.278-7.482c6.026 0 10.988-4.8 10.988-10.73 0-5.894-4.963-10.694-10.988-10.694zm0 3.53c4.253 0 7.443 3.211 7.443 7.164 0 3.988-3.19 7.2-7.443 7.2-3.899 0-7.088-3.212-7.088-7.2 0-3.953 3.19-7.165 7.088-7.165zm-60.465 1.41c2.268 0 4.253 1.235 5.246 3.106l-2.942-1.165a4.721 4.721 0 0 0 -5.954 2.649c-.922 2.365.141 5.012 2.445 6.036l2.481.988c-.39.106-.815.141-1.276.141a5.857 5.857 0 0 1 -5.884-5.859 5.865 5.865 0 0 1 5.884-5.894zm42.39 17.294c3.19 0 5.67 2.647 5.67 5.894 0 3.283-2.48 5.753-5.67 5.753-2.482 0-4.254-1.058-5.317-3 1.063.53 1.772.883 2.835 1.236 2.481 1.058 4.962-.353 6.026-2.612.709-2.188 0-5.188-2.481-6.14l-2.481-.99a9.599 9.599 0 0 1 1.417-.14z" fill="#fff" fill-rule="evenodd"/></svg>