<svg height="47" viewBox="0 0 141 47" width="141" xmlns="http://www.w3.org/2000/svg"><g fill="none"><path d="m138.526316 33.3947368h-9.894737v-12.3684211h-2.473684v12.3684211h-9.894737v-30.92105259h9.894737v8.65789479h7.421052l4.947369 4.9473684zm-24.736842-12.3684211h-9.894737v2.4736843h9.894737v9.8947368h-14.8421056l-4.9473684-4.9473684v-12.368421l4.9473684-4.9473684h14.8421056zm-22.2631583 0h-8.6578946v2.4736843h8.6578946v9.8947368h-13.605263l-4.9473684-4.9473684v-25.97368419h9.8947368v8.65789479h8.6578946zm-30.9210525-12.36842097h9.8947368v-6.18421052h-9.8947368zm0 24.73684207h9.8947368v-22.2631578h-9.8947368zm-2.4736843 0h-29.6842105l-4.9473684-4.9473684v-17.3157894h9.8947368v12.368421h2.4736843v-12.368421h9.8947368v12.368421h2.4736842v-12.368421h9.8947368zm-37.1052632-12.3684211h-8.6578947v2.4736843h8.6578947v9.8947368h-13.60526306l-4.94736843-4.9473684v-25.97368419h9.89473679v8.65789479h8.6578947zm113.7894743-12.36842097h-6.184211v-8.65789473h-13.579289l-6.244816 8.65789473h-11.0969476l-3.7105264 3.71052627v-3.71052627h-8.6578948v-8.65789473h-27.2105263v8.65789473h-38.2802632l-6.2460525-8.65789473h-13.6052632v29.6842105l17.3157895 17.3157895h17.3157894v-4.9473684l4.9473684 4.9473684h33.394737v-4.9473684l4.9473684 4.9473684h16.0789473v-4.9473684l4.9473684 4.9473684h30.9210526l11.131579-11.1315789v-21.0263158z" fill="#0a0b09"/><g fill="#fffffe"><path d="m21.0263157 21.0275527h-8.6578947v2.4724473h8.6578947v9.8959736h-13.60526306l-4.94736843-4.9473684v-25.97492099h9.89473679v8.65789479h8.6578947z"/><path d="m58.1315789 33.3959736h-29.6842105l-4.9473684-4.9473684v-17.3170262h9.8947368v12.368421h2.4736843v-12.368421h9.8947368v12.368421h2.4736842v-12.368421h9.8947368z"/><path d="m60.6052632 33.3947368h9.8947368v-22.2631578h-9.8947368z"/><path d="m60.6052632 8.65789473h9.8947368v-6.18421052h-9.8947368z"/><path d="m91.5263157 21.0275527h-8.6578946v2.4724473h8.6578946v9.8959736h-13.605263l-4.9473684-4.9473684v-25.97492099h9.8947368v8.65789479h8.6578946z"/><path d="m113.789474 21.0275527h-9.894737v2.4724473h9.894737v9.8959736h-14.8421056l-4.9473684-4.9473684v-12.368421l4.9473684-4.9486052h14.8421056z"/><path d="m138.526316 33.3959736h-9.894737v-12.3684209h-2.473684v12.3684209h-9.894737v-30.92228939h9.894737v8.65789479h7.421052l4.947369 4.9486052z"/></g></g></svg>