<svg width="49" height="40" xmlns="http://www.w3.org/2000/svg"><path d="M49 4.735a20.03 20.03 0 0 1-5.774 1.59A10.12 10.12 0 0 0 47.646.74a20.078 20.078 0 0 1-6.383 2.45A10.02 10.02 0 0 0 33.925 0C28.373 0 23.87 4.521 23.87 10.098c0 .791.09 1.562.26 2.301-8.354-.421-15.762-4.441-20.72-10.55A10.085 10.085 0 0 0 2.05 6.924c0 3.503 1.775 6.594 4.472 8.405a9.979 9.979 0 0 1-4.553-1.263v.127c0 4.893 3.464 8.974 8.063 9.902a10.024 10.024 0 0 1-4.54.173c1.28 4.012 4.992 6.931 9.391 7.013a20.114 20.114 0 0 1-12.485 4.322A20.36 20.36 0 0 1 0 35.464 28.363 28.363 0 0 0 15.41 40c18.491 0 28.603-15.387 28.603-28.731 0-.438-.01-.874-.03-1.307A20.483 20.483 0 0 0 49 4.735" fill="#FFF" fill-rule="evenodd"/></svg>