<svg width="60" height="41" xmlns="http://www.w3.org/2000/svg"><path d="M59.367 8.838s-.585-4.01-2.39-5.786C54.706.73 52.153.73 50.958.592 42.593 0 30.012 0 30.012 0h-.024S17.408 0 8.996.592c-1.17.137-3.725.137-6.02 2.46C1.194 4.83.608 8.838.608 8.838S0 13.576 0 18.29v4.418c0 4.715.61 9.43.61 9.43s.585 4.01 2.389 5.786c2.272 2.323 5.271 2.255 6.607 2.483 4.802.455 20.382.592 20.382.592s12.605-.023 20.992-.615c1.172-.137 3.725-.137 6.021-2.46 1.804-1.777 2.39-5.786 2.39-5.786S60 27.424 60 22.71v-4.418c-.023-4.715-.633-9.453-.633-9.453zM23.803 28.062V11.685l16.213 8.223-16.213 8.154z" fill="#FFF" fill-rule="evenodd"/></svg>